<?xml version="1.0" encoding="UTF-8"?>
<!DOCTYPE svg PUBLIC "-//W3C//DTD SVG 1.1//EN" "http://www.w3.org/Graphics/SVG/1.1/DTD/svg11.dtd">
<!-- Creator: CorelDRAW 2018 (64-Bit) -->
<svg xmlns="http://www.w3.org/2000/svg" xml:space="preserve" width="7.7219mm" height="6.9836mm" version="1.1" style="shape-rendering:geometricPrecision; text-rendering:geometricPrecision; image-rendering:optimizeQuality; fill-rule:evenodd; clip-rule:evenodd"
viewBox="0 0 11.35 10.27"
 xmlns:xlink="http://www.w3.org/1999/xlink">
 <defs>
  <style type="text/css">
   <![CDATA[
    .str3 {stroke:#2B2A29;stroke-width:0.44;stroke-linecap:round;stroke-linejoin:round;stroke-miterlimit:22.9256}
    .str1 {stroke:#2B2A29;stroke-width:0.44;stroke-linecap:round;stroke-linejoin:round;stroke-miterlimit:22.9256}
    .str2 {stroke:#C1855A;stroke-width:0.44;stroke-linecap:round;stroke-linejoin:round;stroke-miterlimit:22.9256}
    .str0 {stroke:#C1855A;stroke-width:0.37;stroke-linecap:round;stroke-linejoin:round;stroke-miterlimit:22.9256}
    .fil1 {fill:none}
    .fil0 {fill:#C1855A}
   ]]>
  </style>
 </defs>
 <g id="Слой_x0020_1">
  <metadata id="CorelCorpID_0Corel-Layer"/>
  <g id="_3087948223440">
   <path class="fil0 str0" d="M3.8 8.97l-0.26 0 -0 -6.2 -0.95 0.01c-0.35,0 -0.97,-0.28 -0.99,-1.25 -0.01,-0.97 0.96,-1.35 1.6,-1.35l5.14 0.01c0.71,0 1.45,0.5 1.47,1.33 0.01,0.83 -0.43,1.23 -0.94,1.24l-0.97 0.01 -0 6.21 -0.28 -0.01 0.01 -7.08 -3.81 -0.01 -0.01 7.07z"/>
   <path class="fil1 str1" d="M4.87 0.76c0.04,0.1 0.08,0.4 -0.06,0.52 -0.1,0.08 -0.43,0 -0.61,-0.06 -0.48,-0.16 -0.6,-0.44 -1.19,-0.43 -0.59,0.01 -0.86,0.52 -0.86,0.85 0,0.32 0.27,0.7 0.72,0.7 0.45,-0 0.57,-0.19 0.57,-0.48 0,-0.28 -0.36,-0.46 -0.57,-0.25"/>
   <path class="fil1 str1" d="M6.65 0.76c-0.04,0.1 -0.08,0.4 0.06,0.52 0.1,0.08 0.43,0 0.61,-0.06 0.48,-0.16 0.6,-0.44 1.19,-0.43 0.59,0.01 0.86,0.52 0.86,0.85 0,0.32 -0.27,0.7 -0.72,0.7 -0.45,-0 -0.57,-0.19 -0.57,-0.48 0,-0.28 0.36,-0.46 0.57,-0.25"/>
   <path class="fil1 str2" d="M3.63 8.3c0.04,0.11 0.09,0.44 -0.07,0.57 -0.1,0.09 -0.46,0 -0.65,-0.07 -0.51,-0.17 -0.64,-0.48 -1.27,-0.47 -0.63,0.02 -0.92,0.58 -0.92,0.93 0,0.35 0.29,0.77 0.77,0.77 0.48,0 0.62,-0.21 0.62,-0.52 0,-0.31 -0.38,-0.51 -0.61,-0.28"/>
   <path class="fil1 str2" d="M7.72 8.3c-0.04,0.11 -0.09,0.44 0.07,0.57 0.1,0.09 0.46,0 0.65,-0.07 0.51,-0.17 0.64,-0.48 1.27,-0.47 0.63,0.02 0.92,0.58 0.92,0.93 0,0.35 -0.29,0.77 -0.77,0.77 -0.48,0 -0.62,-0.21 -0.62,-0.52 0,-0.31 0.38,-0.51 0.61,-0.28"/>
  </g>
  <g id="_3087948225328">
   <path class="fil1 str3" d="M0.23 7.06l-0.01 -2.37c-0,-0.73 1.21,-1.26 1.71,-0.19"/>
   <path class="fil1 str3" d="M3.54 7c-0,0.07 0,-0.64 0.01,-1.04 0.01,-0.41 -0.24,-0.92 -0.92,-0.91 -0.68,0.01 -0.93,0.48 -0.94,0.94 -0.01,0.46 0.3,0.93 0.91,0.93 0.6,0 0.78,-0.19 0.95,-0.66"/>
   <path class="fil1 str3" d="M4.13 8.68l0.02 -3.34c0,-0.11 -0.18,-0.36 -0.39,-0.5"/>
   <path class="fil1 str3" d="M4.16 5.43c0.02,-0.07 0.45,-0.41 0.88,-0.4 0.43,0.01 0.93,0.25 0.94,0.95 0.01,0.69 -0.43,0.93 -0.93,0.94 -0.5,0.01 -0.79,-0.21 -0.9,-0.56"/>
   <line class="fil1 str3" x1="6.59" y1="5.04" x2="6.58" y2= "6.98" />
   <path class="fil1 str3" d="M6.63 6.59c0.3,-0.61 0.94,-0.83 1.37,-0.94l-0.01 -0.65"/>
   <line class="fil1 str3" x1="8.01" y1="6.16" x2="8.02" y2= "6.98" />
   <path class="fil1 str3" d="M8.73 4.98l0 0.94c0,0.31 0.21,1.02 0.91,1.02 0.7,0 0.8,-0.31 0.8,-0.85l-0.01 -1.14"/>
   <path class="fil1 str3" d="M11.13 6.92c0,0 -1.05,0.05 -0.4,-0.93"/>
  </g>
 </g>
</svg>
