<?xml version="1.0" encoding="UTF-8"?>
<!DOCTYPE svg PUBLIC "-//W3C//DTD SVG 1.1//EN" "http://www.w3.org/Graphics/SVG/1.1/DTD/svg11.dtd">
<!-- Creator: CorelDRAW 2018 (64-Bit) -->
<svg xmlns="http://www.w3.org/2000/svg" xml:space="preserve" width="15.8093mm" height="7.8368mm" version="1.1" style="shape-rendering:geometricPrecision; text-rendering:geometricPrecision; image-rendering:optimizeQuality; fill-rule:evenodd; clip-rule:evenodd"
viewBox="0 0 47.07 23.33"
 xmlns:xlink="http://www.w3.org/1999/xlink">
 <defs>
  <style type="text/css">
   <![CDATA[
    .str3 {stroke:#2B2A29;stroke-width:1.79;stroke-linecap:round;stroke-linejoin:round;stroke-miterlimit:22.9256}
    .str1 {stroke:#2B2A29;stroke-width:0.89;stroke-linecap:round;stroke-linejoin:round;stroke-miterlimit:22.9256}
    .str2 {stroke:#C1855A;stroke-width:0.89;stroke-linecap:round;stroke-linejoin:round;stroke-miterlimit:22.9256}
    .str0 {stroke:#C1855A;stroke-width:0.74;stroke-linecap:round;stroke-linejoin:round;stroke-miterlimit:22.9256}
    .fil1 {fill:none}
    .fil0 {fill:#C1855A}
   ]]>
  </style>
 </defs>
 <g id="Слой_x0020_1">
  <metadata id="CorelCorpID_0Corel-Layer"/>
  <g id="_2140256548048">
   <path class="fil0 str0" d="M17.34 8.47l-0.53 0.01 -0.01 -2.87 -1.93 0.02c-0.71,0.01 -1.97,-0.57 -2,-2.53 -0.03,-1.96 1.95,-2.74 3.24,-2.73l10.41 0.02c1.43,0 2.94,1.01 2.97,2.69 0.03,1.68 -0.87,2.48 -1.91,2.5l-1.96 0.02 -0.01 4.15 -0.57 -0.01 0.02 -5.9 -7.71 -0.01 -0.02 4.64z"/>
   <path class="fil1 str1" d="M19.5 1.53c0.07,0.2 0.16,0.81 -0.12,1.05 -0.2,0.16 -0.86,0.01 -1.23,-0.12 -0.96,-0.32 -1.21,-0.89 -2.4,-0.86 -1.19,0.03 -1.74,1.06 -1.74,1.71 0,0.65 0.54,1.42 1.45,1.42 0.9,-0 1.16,-0.39 1.16,-0.96 0,-0.57 -0.72,-0.93 -1.15,-0.51"/>
   <path class="fil1 str1" d="M23.1 1.53c-0.07,0.2 -0.16,0.81 0.12,1.05 0.2,0.16 0.86,0.01 1.23,-0.12 0.96,-0.32 1.21,-0.89 2.4,-0.86 1.19,0.03 1.74,1.06 1.74,1.71 0,0.65 -0.54,1.42 -1.45,1.42 -0.9,-0 -1.16,-0.39 -1.16,-0.96 0,-0.57 0.72,-0.93 1.15,-0.51"/>
   <g>
    <path class="fil1 str2" d="M15.2 16.82c0.08,0.22 0.18,0.89 -0.13,1.16 -0.21,0.18 -0.92,0.01 -1.32,-0.13 -1.03,-0.35 -1.3,-0.98 -2.58,-0.95 -1.28,0.03 -1.86,1.17 -1.86,1.89 0,0.72 0.58,1.57 1.56,1.57 0.97,0 1.25,-0.43 1.25,-1.06 0,-0.63 -0.77,-1.03 -1.23,-0.56"/>
    <path class="fil1 str2" d="M26.77 16.82c-0.08,0.22 -0.18,0.89 0.13,1.16 0.21,0.18 0.92,0.01 1.32,-0.13 1.03,-0.35 1.3,-0.98 2.58,-0.95 1.28,0.03 1.86,1.17 1.86,1.89 0,0.72 -0.58,1.57 -1.56,1.57 -0.97,0 -1.25,-0.43 -1.25,-1.06 0,-0.63 0.77,-1.03 1.23,-0.56"/>
   </g>
   <g>
    <path class="fil1 str3" d="M0.94 15.71l-0.04 -9.83c-0.01,-3.04 5.03,-5.21 7.1,-0.8"/>
    <path class="fil1 str3" d="M14.68 15.47c-0.01,0.28 0.02,-2.64 0.04,-4.33 0.03,-1.69 -1.01,-3.82 -3.82,-3.78 -2.8,0.03 -3.85,2.01 -3.89,3.9 -0.04,1.9 1.26,3.85 3.76,3.85 2.5,-0 3.22,-0.79 3.93,-2.72"/>
    <path class="fil1 str3" d="M17.1 22.44l0.07 -13.85c0,-0.44 -0.75,-1.48 -1.61,-2.07"/>
    <path class="fil1 str3" d="M17.24 8.94c0.09,-0.29 1.85,-1.7 3.64,-1.65 1.79,0.04 3.86,1.06 3.88,3.93 0.02,2.87 -1.76,3.86 -3.86,3.88 -2.1,0.02 -3.26,-0.88 -3.73,-2.34"/>
    <line class="fil1 str3" x1="27.31" y1="7.33" x2="27.29" y2= "15.36" />
    <path class="fil1 str3" d="M27.49 13.75c1.26,-2.53 3.91,-3.43 5.69,-3.88l-0.02 -2.71"/>
    <line class="fil1 str3" x1="33.23" y1="11.96" x2="33.25" y2= "15.38" />
    <path class="fil1 str3" d="M36.2 7.06l-0 3.88c0,1.3 0.88,4.21 3.79,4.21 2.91,0 3.32,-1.3 3.31,-3.51l-0.02 -4.72"/>
    <path class="fil1 str3" d="M46.17 15.14c0,0 -4.37,0.22 -1.65,-3.86"/>
   </g>
  </g>
 </g>
</svg>
