<?xml version="1.0" encoding="UTF-8"?>
<!DOCTYPE svg PUBLIC "-//W3C//DTD SVG 1.1//EN" "http://www.w3.org/Graphics/SVG/1.1/DTD/svg11.dtd">
<!-- Creator: CorelDRAW 2018 (64-Bit) -->
<svg xmlns="http://www.w3.org/2000/svg" xml:space="preserve" width="27.8592mm" height="14.6099mm" version="1.1" style="shape-rendering:geometricPrecision; text-rendering:geometricPrecision; image-rendering:optimizeQuality; fill-rule:evenodd; clip-rule:evenodd"
viewBox="0 0 144.99 76.04"
 xmlns:xlink="http://www.w3.org/1999/xlink">
 <defs>
  <style type="text/css">
   <![CDATA[
    .str0 {stroke:#FEFEFE;stroke-width:3.64;stroke-linecap:round;stroke-linejoin:round;stroke-miterlimit:22.9256}
    .str2 {stroke:#2B2A29;stroke-width:2.08;stroke-linecap:round;stroke-linejoin:round;stroke-miterlimit:22.9256}
    .str3 {stroke:#C1855A;stroke-width:2.08;stroke-linecap:round;stroke-linejoin:round;stroke-miterlimit:22.9256}
    .str1 {stroke:#C1855A;stroke-width:1.3;stroke-linecap:round;stroke-linejoin:round;stroke-miterlimit:22.9256}
    .fil0 {fill:none}
    .fil1 {fill:#C1855A}
   ]]>
  </style>
 </defs>
 <g id="Слой_x0020_1">
  <metadata id="CorelCorpID_0Corel-Layer"/>
  <g id="_2601197036768">
   <path class="fil0 str0" d="M1.96 53.21l-0.14 -30.68c-0.04,-9.5 15.7,-16.28 22.17,-2.51"/>
   <path class="fil1 str1" d="M53.15 25.93l-1.65 0.03 -0.03 -8.96 -6.02 0.07c-2.23,0.02 -6.14,-1.77 -6.23,-7.88 -0.09,-6.11 6.09,-8.55 10.12,-8.54l32.5 0.07c4.48,0.01 9.18,3.16 9.26,8.4 0.08,5.24 -2.72,7.74 -5.96,7.81l-6.13 0.07 -0.02 12.95 -1.77 -0.04 0.07 -18.42 -24.06 -0.03 -0.07 14.47z"/>
   <path class="fil0 str2" d="M59.91 4.26c0.22,0.63 0.51,2.54 -0.38,3.29 -0.61,0.51 -2.69,0.02 -3.85,-0.37 -3,-1.01 -3.78,-2.79 -7.51,-2.69 -3.72,0.09 -5.42,3.32 -5.42,5.35 0,2.03 1.7,4.45 4.52,4.45 2.82,-0 3.62,-1.22 3.62,-3.01 0,-1.78 -2.25,-2.91 -3.59,-1.6"/>
   <path class="fil0 str2" d="M71.14 4.26c-0.22,0.63 -0.51,2.54 0.38,3.29 0.61,0.51 2.69,0.02 3.85,-0.37 3,-1.01 3.78,-2.79 7.51,-2.69 3.72,0.09 5.42,3.32 5.42,5.35 0,2.03 -1.7,4.45 -4.52,4.45 -2.82,-0 -3.62,-1.22 -3.62,-3.01 0,-1.78 2.25,-2.91 3.59,-1.6"/>
   <path class="fil0 str0" d="M44.85 52.46c-0.03,0.86 0.06,-8.25 0.14,-13.53 0.08,-5.28 -3.17,-11.91 -11.91,-11.81 -8.74,0.11 -12.02,6.26 -12.15,12.19 -0.13,5.93 3.93,12.02 11.74,12.01 7.81,-0 10.05,-2.48 12.26,-8.5"/>
   <path class="fil0 str0" d="M52.42 74.21l0.21 -43.24c0.01,-1.38 -2.34,-4.61 -5.03,-6.47"/>
   <path class="fil0 str0" d="M52.84 32.08c0.28,-0.9 5.78,-5.3 11.36,-5.16 5.58,0.14 12.05,3.3 12.12,12.25 0.07,8.95 -5.51,12.05 -12.05,12.12 -6.54,0.07 -10.19,-2.75 -11.64,-7.3"/>
   <line class="fil0 str0" x1="84.3" y1="27.05" x2="84.23" y2= "52.11" />
   <path class="fil0 str0" d="M84.85 47.09c3.94,-7.9 12.22,-10.69 17.76,-12.12l-0.07 -8.47"/>
   <line class="fil0 str0" x1="102.75" y1="41.51" x2="102.82" y2= "52.18" />
   <path class="fil0 str0" d="M112.05 26.23l-0 12.12c0,4.06 2.75,13.15 11.84,13.15 9.09,0 10.36,-4.06 10.33,-10.95l-0.07 -14.73"/>
   <path class="fil0 str0" d="M143.17 51.42c0,0 -13.63,0.69 -5.16,-12.05"/>
   <path class="fil0 str3" d="M41.27 62.1c0.24,0.69 0.55,2.79 -0.41,3.61 -0.66,0.56 -2.88,0.02 -4.13,-0.41 -3.22,-1.11 -4.06,-3.06 -8.06,-2.96 -3.99,0.1 -5.82,3.65 -5.82,5.89 0,2.24 1.83,4.89 4.85,4.89 3.03,-0 3.89,-1.34 3.89,-3.3 0,-1.96 -2.41,-3.2 -3.86,-1.76"/>
   <path class="fil0 str3" d="M85.21 60.31c-0.24,0.69 -0.55,2.79 0.41,3.61 0.66,0.56 2.88,0.02 4.13,-0.41 3.22,-1.11 4.06,-3.06 8.06,-2.96 3.99,0.1 5.82,3.65 5.82,5.89 0,2.24 -1.83,4.89 -4.85,4.89 -3.03,-0 -3.89,-1.34 -3.89,-3.3 0,-1.96 2.41,-3.2 3.86,-1.76"/>
  </g>
 </g>
</svg>
